<svg width="23" height="23" fill="none" xmlns="http://www.w3.org/2000/svg"><path fill-rule="evenodd" clip-rule="evenodd" d="M11.59 4.546A3.621 3.621 0 007.968 8.17a3.621 3.621 0 003.622 3.622 3.621 3.621 0 003.623-3.622 3.621 3.621 0 00-3.623-3.623zm1.812 3.623c0-.997-.815-1.812-1.812-1.812-.996 0-1.81.815-1.81 1.812 0 .996.814 1.81 1.81 1.81.997 0 1.812-.814 1.812-1.81zm3.622 9.055c-.181-.643-2.989-1.81-5.434-1.81-2.436 0-5.225 1.158-5.433 1.81h10.867zm-12.678 0c0-2.408 4.827-3.622 7.244-3.622 2.418 0 7.245 1.214 7.245 3.622v1.812H4.345v-1.812z" fill="#FEFEFE"/></svg>