<svg width="22" height="22" fill="none" xmlns="http://www.w3.org/2000/svg"><path fill-rule="evenodd" clip-rule="evenodd" d="M2.033 11.013c0-4.999 4.057-9.056 9.056-9.056 5 0 9.056 4.057 9.056 9.056v1.295c0 1.784-1.385 3.233-3.17 3.233-1.077 0-2.091-.525-2.68-1.331a4.53 4.53 0 01-7.734-3.197 4.53 4.53 0 014.528-4.528 4.53 4.53 0 014.528 4.528v1.295c0 .716.643 1.422 1.359 1.422.715 0 1.358-.707 1.358-1.422v-1.295c0-3.93-3.314-7.245-7.245-7.245-3.93 0-7.244 3.315-7.244 7.245s3.314 7.245 7.244 7.245h4.528v1.811H11.09c-4.999 0-9.056-4.057-9.056-9.056zm6.34 0a2.713 2.713 0 002.716 2.717 2.713 2.713 0 002.717-2.717 2.713 2.713 0 00-2.717-2.717 2.713 2.713 0 00-2.717 2.717z" fill="#FEFEFE"/></svg>