<svg width="22" height="23" fill="none" xmlns="http://www.w3.org/2000/svg"><path fill-rule="evenodd" clip-rule="evenodd" d="M3.845 3.338h3.17c.497 0 .905.407.905.905 0 1.132.18 2.22.516 3.233.1.317.027.67-.226.924l-1.993 1.992a13.718 13.718 0 005.968 5.968l1.992-1.992a.927.927 0 01.643-.263c.09 0 .19.01.281.045 1.014.336 2.11.517 3.233.517.498 0 .906.407.906.905v3.16a.908.908 0 01-.906.906c-8.503 0-15.395-6.891-15.395-15.395 0-.498.407-.905.906-.905zm2.3 1.81c.054.807.19 1.595.407 2.346L5.466 8.581a13.426 13.426 0 01-.689-3.432h1.368zm8.929 10.886c.77.217 1.557.353 2.354.408v1.349a13.972 13.972 0 01-3.44-.68l1.086-1.077z" fill="#FEFEFE"/></svg>