<svg viewBox="0 0 584 423" fill="none" xmlns="http://www.w3.org/2000/svg"><path d="M290.824 421.717c160.3 0 290.249-28.94 290.249-64.639s-129.949-64.639-290.249-64.639c-160.301 0-290.25 28.94-290.25 64.639s129.949 64.639 290.25 64.639z" fill="#DFF2FA" fill-opacity=".89"/><path opacity=".7" d="M583.634 357.404c0 4.366-1.985 8.66-5.83 12.845-3.847 4.187-9.538 8.243-16.899 12.118-14.72 7.751-36.044 14.742-62.425 20.617-52.757 11.749-125.657 19.019-206.193 19.019-80.536 0-153.436-7.27-206.192-19.019-26.382-5.875-47.706-12.866-62.426-20.617-7.36-3.875-13.052-7.931-16.899-12.118-3.845-4.185-5.83-8.479-5.83-12.845 0-4.366 1.985-8.661 5.83-12.846 3.847-4.186 9.538-8.242 16.899-12.118 14.72-7.75 36.044-14.741 62.425-20.616 52.757-11.749 125.657-19.019 206.193-19.019 80.536 0 153.436 7.27 206.193 19.019 26.381 5.875 47.705 12.866 62.425 20.616 7.361 3.876 13.052 7.932 16.899 12.118 3.845 4.185 5.83 8.48 5.83 12.846z" stroke="#012E6D" stroke-width=".732"/><path d="M425.383 144.3L397.08 286.091h-6.127l-.674-1.048-1.952-3.036 24.509-132.456 3.721-1.558 8.826-3.693z" fill="#47465A"/><path opacity=".1" d="M416.557 147.993l-26.278 137.05-1.952-3.036 24.509-132.456 3.721-1.558z" fill="#000"/><path d="M467.984 337.439l-7.277 2.346-1.768.571-2.335-5.251-40.047-182.66 4.164-.933 8.747-1.961 38.516 187.888z" fill="#47465A"/><path opacity=".1" d="M460.707 339.785l-1.768.571-2.335-5.251-40.047-182.66 4.164-.933 39.986 188.273z" fill="#000"/><path d="M121.051 144.3l-6.419 183.803-7.356 1.634-.522.117-2.043-3.793 4.085-180.011 3.93-.56 8.325-1.19z" fill="#47465A"/><path opacity=".1" d="M112.726 145.49l-5.45 184.247-.522.116-2.043-3.792 4.085-180.012 3.93-.559z" fill="#000"/><path d="M159.275 393.164l-7.609 1.312-.853.146-2.334-4.959-37.057-240.112 1.068-.324 5.644-1.718 41.141 245.655z" fill="#47465A"/><path opacity=".1" d="M151.666 394.477l-.853.145-2.334-4.959-37.057-240.112 1.068-.324 39.176 245.25z" fill="#000"/><path d="M320.34 129.42l28.333 36.199a9.178 9.178 0 003.7 2.817 9.182 9.182 0 004.604.646l116.31-13.621a9.186 9.186 0 008.119-9.124V119.5l-161.066 9.92z" fill="#7A799C"/><path d="M415.755 135.255h7.878v11.369a2.929 2.929 0 01-2.927 2.927h-2.024a2.928 2.928 0 01-2.927-2.927v-11.369z" fill="#47465A"/><path d="M111.422 152.469l28.333 36.199a9.187 9.187 0 008.304 3.462l116.31-13.62a9.187 9.187 0 008.119-9.124v-26.837l-161.066 9.92z" fill="#7A799C"/><path d="M206.836 158.303h7.878v11.369a2.926 2.926 0 01-2.927 2.927h-2.024a2.925 2.925 0 01-2.927-2.927v-11.369z" fill="#47465A"/><path d="M143.974 170.802l345.963-40.294a5.09 5.09 0 004.421-4.166 5.081 5.081 0 00-2.72-5.43l-61.887-31.12a71.64 71.64 0 00-39.45-7.267L82.94 113.86a5.883 5.883 0 00-3.601 9.957l35.792 36.717a34.74 34.74 0 0028.843 10.267zM528 125.047l-3.701-2.046s-3.995 2.941-7.25 15.329c-3.255 12.388 6.083.134 6.083.134l4.085-8.46.783-4.957zM488.409 238.535s-3.793 17.797-5.544 22.757c-.858 2.427-5.001 4.648-9.594 6.346a64.3 64.3 0 01-12.582 3.282c-4.96.583-68.569-9.336-99.498-16.047-20.837-4.519-23.53-9.703-23.069-12.603a4.2 4.2 0 011.185-2.276s30.637-20.714 41.433-30.634c10.796-9.92 32.097-2.042 55.439 2.042 23.343 4.085 52.23 27.133 52.23 27.133z" fill="#47465A"/><path d="M524.299 123.002s14.297 9.336-33.847 28.591c0 0-26.168 14.753-22.762 75.525a16.677 16.677 0 002.423 7.718c4.967 8.169 15.612 28.848-2.129 31.416v4.668s32.097-16.047 35.598-29.759c3.502-13.712 15.173-89.859 21.009-96.861 5.835-7.003 9.629-18.089-.292-21.298z" fill="#47465A"/><path opacity=".1" d="M473.271 267.638a64.23 64.23 0 01-12.582 3.282c-4.96.584-68.569-9.336-99.498-16.046-20.837-4.52-23.53-9.704-23.069-12.604 13.696 4.682 58.17 19.544 74.131 20.773 18.966 1.458 55.2 5.514 57.946 2.757 1.056-1.062 2.138.058 3.072 1.838z" fill="#000"/><path d="M306.627 389.079l27.72-126.62s4.96-13.421 16.34-12.837l10.504 5.251s-17.507-4.084-21.3 9.337c-3.794 13.42-28.012 124.869-28.012 124.869h-5.252zM373.154 331.313l11.088-77.315h4.96l-11.379 77.315h-4.669zM479.363 406.876l-10.504-120.785s0-10.212 5.252-15.171c5.252-4.96 22.208-19.108 22.208-19.108s4.345-1.023 7.846 8.896c3.502 9.92 27.72 109.116 27.72 109.116l-4.669 2.042-30.054-114.367-20.716 19.547s-4.085 7.294-2.043 14.005c2.043 6.71 9.629 115.825 9.629 115.825h-4.669z" fill="#47465A"/><path d="M446.976 268.003l26.26 7.585 5.836-5.543-15.173-2.042h-16.923z" fill="#47465A"/><path d="M213.52 55.054l4.258 63.863 93.08-9.044-3.704-62.43a6.277 6.277 0 00-4.323-5.597 6.282 6.282 0 00-2.472-.287l-81.099 6.82a6.282 6.282 0 00-5.74 6.675z" fill="#7A799C"/><path d="M342.079 128.253l-92.788 10.121-3.502.382-27.135-17.505v-3.793l92.203-8.303 31.222 19.098z" fill="#7A799C"/><path opacity=".1" d="M249.291 138.374l-3.502.382-27.135-17.505v-3.396l30.637 20.519z" fill="#000"/><path d="M219.821 54.44l3.21 56.891 81.699-7.585-2.918-55.433-81.991 6.127z" fill="#9493B6"/><path opacity=".1" d="M268.548 127.086l9.921 6.711 30.054-2.918-10.213-6.419-29.762 2.626z" fill="#000"/><path d="M227.99 118.917l12.547 9.336 80.242-7.585-14.298-9.337-78.491 7.586z" fill="#9493B6"/><path d="M429.614 32.704h-59.233V91.93h59.233V32.704z" fill="#7C5C5C"/><path opacity=".1" d="M429.614 32.704h-59.233V91.93h59.233V32.704z" fill="#000"/><path d="M390.781 60.112s8.356 22.628 0 26.806c-8.356 4.177 29.941 0 29.941 0l10.793-8.703s-24.371-6.963-20.889-22.976c3.481-16.014-19.845 4.873-19.845 4.873z" fill="#FBBEBE"/><path opacity=".1" d="M390.781 60.112s8.356 22.628 0 26.806c-8.356 4.177 29.941 0 29.941 0l10.793-8.703s-24.371-6.963-20.889-22.976c3.481-16.014-19.845 4.873-19.845 4.873z" fill="#000"/><path d="M322.194 287.084s31.334 44.211 26.112 56.395c-5.222 12.185-2.437 19.843-12.882 24.02-10.445 4.178-13.23 11.836-4.178 11.488 9.052-.348 20.89-2.785 22.63-5.918 1.741-3.133 5.919-18.102 11.838-20.19 5.918-2.089 17.059-10.096 9.052-19.843-8.008-9.747-28.184-45.65-26.626-49.282 1.558-3.632-25.946 3.33-25.946 3.33z" fill="#FBBEBE"/><path d="M387.647 199.707s-64.757 4.178-81.469 19.843c-16.711 15.665 14.623 74.149 18.105 74.845 3.481.696 30.637-2.089 29.593-9.747-1.045-7.659-19.497-38.989-19.497-38.989s24.023-8.703 37.253-10.792c13.23-2.089 27.853-11.836 27.853-11.836l-11.838-23.324z" fill="#9493B6"/><path d="M358.054 189.96s1.044 38.641 10.793 40.034c9.748 1.392 0-29.59 0-29.59l-.349-11.836-10.444 1.392z" fill="#FBBEBE"/><path d="M387.648 88.658s-18.104-5.222-21.586 8.703c-3.481 13.925-4.526 61.965-4.526 61.965l-6.267 38.293s11.489-3.481 13.927-1.741l14.622-18.45 3.83-88.77z" fill="#012E6D"/><path opacity=".1" d="M387.648 88.658s-18.104-5.222-21.586 8.703c-3.481 13.925-4.526 61.965-4.526 61.965l-6.267 38.293s11.489-3.481 13.927-1.741l14.622-18.45 3.83-88.77z" fill="#000"/><path d="M412.385 294.498s12.167 23.917 19.478 23.569c7.312-.348 14.275-4.874 17.757 9.399 3.481 14.273-.697 10.444 3.481 18.799 4.178 8.354 4.874 22.975-3.133 26.457-8.008 3.481-15.319 3.829-15.667 0-.349-3.83 6.963-3.83-1.393-17.406-8.356-13.577-26.112-38.293-33.423-40.73-7.311-2.437 12.9-20.088 12.9-20.088z" fill="#FBBEBE"/><path d="M444.049 185.435s25.067 41.774 8.704 53.958c-16.364 12.184-65.106 35.508-65.106 35.508s26.112 17.754 27.505 23.672c1.392 5.918-12.534 21.931-17.408 22.279-4.874.348-19.149-16.013-34.468-20.191-15.318-4.177-24.719-34.115-8.007-45.255 16.711-11.14 32.378-29.59 32.378-29.59l-4.871-26.801 61.273-13.58z" fill="#9493B6"/><path d="M422.32 46.125c0 14.804-15.167 27.042-29.972 27.042a26.805 26.805 0 110-53.61c14.805 0 29.972 11.764 29.972 26.568z" fill="#FBBEBE"/><path d="M399.136 84.829s24.023-10.444 24.023-11.836c0-1.392 13.927 3.133 17.06 5.918 3.133 2.785 4.874 2.437 6.963 8.007 2.089 5.57-10.445 57.439-10.445 57.439s6.964 40.033 10.793 43.863c3.83 3.829-30.986 9.399-30.986 9.399s-22.978 4.177-26.808 5.918c-3.83 1.74-10.793 4.177-9.4 0 1.393-4.178 7.311-7.311-2.785-12.532 0 0 3.481-17.058 0-24.717-3.482-7.658-19.497-35.508-6.615-55.698 12.882-20.191 18.8-27.502 18.8-27.502s4.526 3.83 9.4 1.74z" fill="#012E6D"/><path d="M406.796 179.865s-27.156 12.043-35.338 13.158c-8.181 1.114-32.9 7.38-19.322 12.95 13.578 5.57 34.119-2.785 34.119-2.785l28.897-12.184-8.356-11.139z" fill="#FBBEBE"/><path opacity=".1" d="M436.034 83.76s10.028-4.85 12.813 12.208 12.533 71.016 0 79.023c-12.534 8.007-41.431 20.887-41.431 20.887s-17.06-11.488-9.052-15.665c8.008-4.178 27.156-16.014 29.941-20.191 2.786-4.178 5.6-50.806.726-58.464-4.874-7.66 7.003-17.797 7.003-17.797z" fill="#000"/><path d="M435.345 79.607s13.926-.696 16.711 16.361c2.786 17.058 12.534 71.016 0 79.023-12.533 8.007-41.43 20.887-41.43 20.887s-17.06-11.488-9.052-15.665c8.007-4.178 27.156-16.014 29.941-20.191 2.785-4.178-2.089-47.692-6.963-55.351-4.874-7.658 10.793-25.064 10.793-25.064z" fill="#012E6D"/><path d="M385.744 1.239c-4.274.581-8.859 2.145-11.009 5.883-1.053 1.83-1.393 3.976-2.204 5.925-2.237 5.377-7.67 8.588-11.593 12.893-5.112 5.611-7.651 14.067-4.636 21.032 1.168 2.698 3.064 5.008 4.502 7.572 4.011 7.152 4.225 15.741 4.339 23.94l.225 16.121c.034 2.462.061 4.973-.68 7.321-.741 2.348-2.397 4.546-4.744 5.288a12.302 12.302 0 0014.319-4.89 12.566 12.566 0 01-3.84 11.147c6.382-1.503 11.735-6.145 15.107-11.768 3.372-5.624 4.936-12.165 5.637-18.684.37-3.448.501-7.013-.589-10.306-.767-2.319-2.105-4.397-3.376-6.484-3.275-5.378-6.225-11.098-7.281-17.306-1.055-6.207.005-13.018 4.036-17.856a16.127 16.127 0 0112.741-5.841 14.184 14.184 0 0111.827 7.239c.931 1.753 2.257 4.128 4.144 3.513.349-.149.691-.316 1.022-.502 2.104-.958 4.495.932 5.423 3.05 2.927 6.679-2.466 13.97-3.023 21.241-.519 6.764 3.253 13.143 7.761 18.213a59.842 59.842 0 0029.257 17.973 8.215 8.215 0 01-4.244-2.636 55.738 55.738 0 0013.693-1.148c-4.899-3.691-9.832-7.414-13.922-11.985s-7.329-10.102-8.211-16.172c-1.184-8.145 1.85-16.967-1.619-24.431-3.171-6.825-11.037-10.638-13.91-17.594-2.918-7.065-4.809-13.203-12.535-16.279-8.431-3.357-17.507-5.709-26.617-4.47z" fill="#7C5C5C"/></svg>