<svg width="29" height="29" fill="none" xmlns="http://www.w3.org/2000/svg"><path fill-rule="evenodd" clip-rule="evenodd" d="M14.5 4.833a4.832 4.832 0 00-4.833 4.834A4.832 4.832 0 0014.5 14.5a4.832 4.832 0 004.833-4.833A4.832 4.832 0 0014.5 4.833zm2.417 4.834A2.424 2.424 0 0014.5 7.25a2.424 2.424 0 00-2.417 2.417 2.424 2.424 0 002.417 2.416 2.424 2.424 0 002.417-2.416zM21.75 21.75c-.242-.858-3.988-2.417-7.25-2.417-3.25 0-6.972 1.547-7.25 2.417h14.5zm-16.917 0c0-3.214 6.44-4.833 9.667-4.833 3.226 0 9.667 1.619 9.667 4.833v2.417H4.833V21.75z" fill="#FEFEFE"/></svg>