<svg viewBox="0 0 792 1002" fill="none" xmlns="http://www.w3.org/2000/svg"><g filter="url(#filter0_dddd)"><path fill-rule="evenodd" clip-rule="evenodd" d="M611.732 117.464c100.833 78.436 66.557 186.367 94.562 283.069 19.708 68.05 52.551 134.027 44.966 198.713-8.218 70.075-37.55 132.216-89.931 184.721-67.873 68.034-129.811 152.622-254.555 160.58-130.094 8.3-281.106-45.194-394.05-119.201-107.034-70.135-144.369-171.027-191.638-264.573-42.935-84.969-97.542-174.854-68.82-250.877 27.869-73.767 140.783-96.168 217.656-143.074C53.486 115.834 104.16 32.545 221.616 23.512c126.506-9.729 288.534 14.934 390.116 93.952z" fill="#DFF2FA" fill-opacity=".89"/></g><g filter="url(#filter1_ddd)"><path clip-rule="evenodd" d="M614.988 109.59c104.365 80.247 71.231 188.751 101.522 286.617 21.316 68.87 56.014 135.794 49.392 200.967-7.174 70.603-36.055 132.968-88.647 185.355-68.147 67.882-129.944 152.53-257.23 159.175-132.745 6.93-287.934-48.711-404.594-124.624-110.555-71.941-150.449-174.139-200.362-269.035-45.338-86.196-102.683-177.48-74.668-253.856 27.184-74.11 142.135-95.457 219.843-141.924C44.716 101.753 95.03 18.291 214.852 10.481c129.055-8.412 294.995 18.266 400.136 99.109z" stroke="#338FFF" stroke-width="1.718"/></g><defs><filter id="filter0_dddd" x="-287.736" y="13.502" width="1072.11" height="987.895" filterUnits="userSpaceOnUse" color-interpolation-filters="sRGB"><feFlood flood-opacity="0" result="BackgroundImageFix"/><feColorMatrix in="SourceAlpha" values="0 0 0 0 0 0 0 0 0 0 0 0 0 0 0 0 0 0 127 0"/><feOffset/><feGaussianBlur stdDeviation=".5"/><feColorMatrix values="0 0 0 0 0 0 0 0 0 0 0 0 0 0 0 0 0 0 0.04 0"/><feBlend in2="BackgroundImageFix" result="effect1_dropShadow"/><feColorMatrix in="SourceAlpha" values="0 0 0 0 0 0 0 0 0 0 0 0 0 0 0 0 0 0 127 0"/><feOffset dy="4"/><feGaussianBlur stdDeviation="4"/><feColorMatrix values="0 0 0 0 0 0 0 0 0 0 0 0 0 0 0 0 0 0 0.04 0"/><feBlend in2="effect1_dropShadow" result="effect2_dropShadow"/><feColorMatrix in="SourceAlpha" values="0 0 0 0 0 0 0 0 0 0 0 0 0 0 0 0 0 0 127 0"/><feOffset dy="16"/><feGaussianBlur stdDeviation="12"/><feColorMatrix values="0 0 0 0 0 0 0 0 0 0 0 0 0 0 0 0 0 0 0.04 0"/><feBlend in2="effect2_dropShadow" result="effect3_dropShadow"/><feColorMatrix in="SourceAlpha" values="0 0 0 0 0 0 0 0 0 0 0 0 0 0 0 0 0 0 127 0"/><feOffset dy="24"/><feGaussianBlur stdDeviation="16"/><feColorMatrix values="0 0 0 0 0 0 0 0 0 0 0 0 0 0 0 0 0 0 0.04 0"/><feBlend in2="effect3_dropShadow" result="effect4_dropShadow"/><feBlend in="SourceGraphic" in2="effect4_dropShadow" result="shape"/></filter><filter id="filter1_ddd" x="-291.859" y=".141" width="1083.45" height="983.005" filterUnits="userSpaceOnUse" color-interpolation-filters="sRGB"><feFlood flood-opacity="0" result="BackgroundImageFix"/><feColorMatrix in="SourceAlpha" values="0 0 0 0 0 0 0 0 0 0 0 0 0 0 0 0 0 0 127 0"/><feOffset/><feGaussianBlur stdDeviation=".5"/><feColorMatrix values="0 0 0 0 0 0 0 0 0 0 0 0 0 0 0 0 0 0 0.04 0"/><feBlend in2="BackgroundImageFix" result="effect1_dropShadow"/><feColorMatrix in="SourceAlpha" values="0 0 0 0 0 0 0 0 0 0 0 0 0 0 0 0 0 0 127 0"/><feOffset dy="2"/><feGaussianBlur stdDeviation="3"/><feColorMatrix values="0 0 0 0 0 0 0 0 0 0 0 0 0 0 0 0 0 0 0.04 0"/><feBlend in2="effect1_dropShadow" result="effect2_dropShadow"/><feColorMatrix in="SourceAlpha" values="0 0 0 0 0 0 0 0 0 0 0 0 0 0 0 0 0 0 127 0"/><feOffset dy="16"/><feGaussianBlur stdDeviation="12"/><feColorMatrix values="0 0 0 0 0 0 0 0 0 0 0 0 0 0 0 0 0 0 0.06 0"/><feBlend in2="effect2_dropShadow" result="effect3_dropShadow"/><feBlend in="SourceGraphic" in2="effect3_dropShadow" result="shape"/></filter></defs></svg>