<svg viewBox="0 0 418 186" fill="none" xmlns="http://www.w3.org/2000/svg">
<path d="M325 33.815h-53.301v19.848h53.301V33.815z" fill="#338FFF"/>
<path opacity=".3" d="M413 0h-53.301v19.848h53.301V0zM417.289 61.382h-53.302v19.847h53.302V61.382zM246.724 84.17h-53.301v19.848h53.301V84.17zM229.815 165.767h-53.302v19.848h53.302v-19.848zM310.318 163.929h-53.301v19.848h53.301v-19.848z" fill="#338FFF"/>
<path d="M360 9.799l-35.289 33.48 38.965 28.026M271.721 43.28l-51.648 40.89M203.164 165.751l16.909-61.733 63.595 59.911" stroke="#3F3D56" stroke-width=".728" stroke-miterlimit="10"/>
<path opacity=".3" d="M54 20.447H.797v19.848h53.301V20.447zM57.775 81.829H4.473v19.847h53.302V81.829z" fill="#338FFF"/>
<path d="M57 91.752h60.447" stroke="#3F3D56" stroke-width=".728" stroke-miterlimit="10"/>
<path d="M153 81.594H91.088v19.788h62.667V81.594z" fill="#338FFF"/>
<path d="M153 91.488h39.587M90.788 91.488L54.099 30.246" stroke="#3F3D56" stroke-width=".728" stroke-miterlimit="10"/>
</svg>