<svg viewBox="0 0 375 826" fill="none" xmlns="http://www.w3.org/2000/svg" preserveAspectRatio="xMinYMin meet"><g filter="url(#filter0_dddd)"><path d="M-147.963 231.543c-5.107-70.654 20.991-157.99 88.024-184.714C7.096 20.276 88.044.456 197.773 14.022c109.959 13.394 221.676 6.466 244.162 52.81 22.485 46.174-44.031 145.79-42.83 217.142 1.431 71.521 70.58 114.78 110.63 183.93 40.051 69.15 51.001 164.022-2.349 220.566-53.351 56.545-170.773 74.591-284.11 79.135-113.107 4.542-222.128-4.417-264.661-61.778-42.302-57.192-17.886-162.787-16.078-229.03 1.808-66.242-18.991-93.132-47.432-133.649-28.671-40.516-55.311-47.76-43.068-111.605z" fill="#DFF2FA" fill-opacity=".89"/></g><defs><filter id="filter0_dddd" x="-184" y="0" width="760.366" height="825.91" filterUnits="userSpaceOnUse" color-interpolation-filters="sRGB"><feFlood flood-opacity="0" result="BackgroundImageFix"/><feColorMatrix in="SourceAlpha" values="0 0 0 0 0 0 0 0 0 0 0 0 0 0 0 0 0 0 127 0"/><feOffset/><feGaussianBlur stdDeviation=".5"/><feColorMatrix values="0 0 0 0 0 0 0 0 0 0 0 0 0 0 0 0 0 0 0.04 0"/><feBlend in2="BackgroundImageFix" result="effect1_dropShadow"/><feColorMatrix in="SourceAlpha" values="0 0 0 0 0 0 0 0 0 0 0 0 0 0 0 0 0 0 127 0"/><feOffset dy="4"/><feGaussianBlur stdDeviation="4"/><feColorMatrix values="0 0 0 0 0 0 0 0 0 0 0 0 0 0 0 0 0 0 0.04 0"/><feBlend in2="effect1_dropShadow" result="effect2_dropShadow"/><feColorMatrix in="SourceAlpha" values="0 0 0 0 0 0 0 0 0 0 0 0 0 0 0 0 0 0 127 0"/><feOffset dy="16"/><feGaussianBlur stdDeviation="12"/><feColorMatrix values="0 0 0 0 0 0 0 0 0 0 0 0 0 0 0 0 0 0 0.04 0"/><feBlend in2="effect2_dropShadow" result="effect3_dropShadow"/><feColorMatrix in="SourceAlpha" values="0 0 0 0 0 0 0 0 0 0 0 0 0 0 0 0 0 0 127 0"/><feOffset dy="24"/><feGaussianBlur stdDeviation="16"/><feColorMatrix values="0 0 0 0 0 0 0 0 0 0 0 0 0 0 0 0 0 0 0.04 0"/><feBlend in2="effect3_dropShadow" result="effect4_dropShadow"/><feBlend in="SourceGraphic" in2="effect4_dropShadow" result="shape"/></filter></defs></svg>