<svg width="29" height="29" fill="none" xmlns="http://www.w3.org/2000/svg"><path fill-rule="evenodd" clip-rule="evenodd" d="M2.417 14.5C2.417 7.83 7.83 2.417 14.5 2.417S26.583 7.83 26.583 14.5v1.728c0 2.38-1.848 4.314-4.229 4.314-1.438 0-2.791-.701-3.576-1.777a6.006 6.006 0 01-4.278 1.777A6.044 6.044 0 018.458 14.5 6.044 6.044 0 0114.5 8.458a6.044 6.044 0 016.042 6.042v1.728c0 .954.858 1.897 1.812 1.897.955 0 1.813-.942 1.813-1.897V14.5c0-5.244-4.423-9.667-9.667-9.667S4.833 9.256 4.833 14.5s4.423 9.667 9.667 9.667h6.042v2.416H14.5c-6.67 0-12.083-5.413-12.083-12.083zm8.458 0a3.62 3.62 0 003.625 3.625 3.62 3.62 0 003.625-3.625 3.62 3.62 0 00-3.625-3.625 3.62 3.62 0 00-3.625 3.625z" fill="#FEFEFE"/></svg>