<svg width="29" height="29" fill="none" xmlns="http://www.w3.org/2000/svg"><path fill-rule="evenodd" clip-rule="evenodd" d="M4.833 3.625h4.23c.664 0 1.208.544 1.208 1.208 0 1.51.241 2.96.689 4.314.132.423.036.894-.303 1.233L8 13.038A18.304 18.304 0 0015.962 21l2.658-2.659c.242-.23.544-.35.858-.35.121 0 .254.012.375.06 1.353.448 2.815.69 4.314.69.664 0 1.208.543 1.208 1.208v4.217c0 .664-.544 1.208-1.208 1.208-11.347 0-20.542-9.195-20.542-20.542 0-.664.544-1.208 1.208-1.208zm3.07 2.417c.072 1.075.253 2.126.543 3.13l-1.45 1.45a17.915 17.915 0 01-.918-4.58h1.825zm11.914 14.524c1.027.29 2.078.471 3.141.544v1.8a18.638 18.638 0 01-4.591-.906l1.45-1.438z" fill="#FEFEFE"/></svg>